<?xml version="1.0" standalone="no"?>
<!DOCTYPE svg PUBLIC "-//W3C//DTD SVG 20010904//EN"
 "http://www.w3.org/TR/2001/REC-SVG-20010904/DTD/svg10.dtd">
<svg version="1.0" xmlns="http://www.w3.org/2000/svg"
 width="363.000000pt" height="487.000000pt" viewBox="0 0 363.000000 487.000000"
 preserveAspectRatio="xMidYMid meet">

<g transform="translate(0.000000,487.000000) scale(0.100000,-0.100000)"
fill="#000000" stroke="none">
<path d="M0 2435 l0 -2435 1815 0 1815 0 0 2435 0 2435 -1815 0 -1815 0 0
-2435z m2375 1380 c73 -121 237 -393 365 -605 277 -458 420 -697 420 -704 0
-6 -240 100 -485 214 -49 23 -160 74 -245 112 -85 39 -237 108 -337 153 -99
46 -204 94 -232 106 l-51 21 0 821 0 820 216 -359 c119 -197 276 -458 349
-579z m-685 112 l0 -813 -67 -31 c-38 -17 -212 -96 -388 -175 -176 -80 -450
-204 -608 -277 -159 -72 -290 -131 -292 -131 -2 0 107 183 242 408 135 224
424 704 643 1067 423 703 461 765 466 765 2 0 4 -366 4 -813z m-2 -2017 l-3
-361 -325 192 c-179 106 -395 233 -480 284 -85 50 -245 145 -355 209 -110 65
-203 121 -208 125 -4 4 19 18 50 31 32 13 105 46 163 73 58 27 188 87 290 132
102 46 226 102 275 125 105 49 480 219 545 247 l45 19 3 -358 c1 -197 1 -520
0 -718z m572 875 c239 -108 516 -233 615 -278 99 -45 209 -95 244 -112 l64
-31 -29 -21 c-25 -18 -522 -312 -1034 -613 -91 -53 -195 -116 -233 -138 -37
-23 -70 -42 -72 -42 -3 0 -5 324 -5 721 0 396 3 718 8 716 4 -3 203 -93 442
-202z m-1888 -791 c23 -15 143 -86 267 -159 124 -73 399 -235 611 -360 212
-125 397 -235 412 -244 l28 -16 0 -564 0 -563 -69 94 c-37 52 -184 259 -326
459 -142 200 -373 526 -513 724 -141 198 -299 421 -352 495 -131 184 -129 179
-58 134z m2802 14 c-5 -7 -152 -215 -328 -463 -176 -247 -394 -556 -486 -685
-92 -129 -253 -356 -359 -504 l-191 -268 0 563 0 564 253 149 c138 82 421 249
627 371 375 222 482 284 488 285 2 0 0 -6 -4 -12z"/>
</g>
</svg>
